<?xml version="1.0" encoding="UTF-8"?>
<svg width="100px" height="100px" viewBox="0 0 100 100" version="1.1" xmlns="http://www.w3.org/2000/svg" xmlns:xlink="http://www.w3.org/1999/xlink">
    <!-- Generator: Sketch 49 (51002) - http://www.bohemiancoding.com/sketch -->
    <title>Untitled</title>
    <desc>Created with Sketch.</desc>
    <defs></defs>
    <g id="Page-1" stroke="none" stroke-width="1" fill="none" fill-rule="evenodd">
        <rect id="Rectangle" x="0" y="0" width="100" height="100"></rect>
        <path d="M65.4120687,34.573 C64.8130687,34.573 64.2160687,34.337 63.7680687,33.871 C62.8930687,32.962 62.9220687,31.516 63.8300687,30.642 C64.3220687,30.168 64.2130687,28.679 64.1240687,27.485 C64.0830687,26.931 64.0460687,26.387 64.0430687,25.896 C64.0370687,24.636 65.0530687,23.586 66.3140687,23.586 C66.3170687,23.586 66.3210687,23.586 66.3250687,23.586 C67.5810687,23.586 68.6010687,24.617 68.6080687,25.873 C68.6100687,26.267 68.6430687,26.712 68.6760687,27.156 C68.8260687,29.189 69.0320687,31.974 66.9940687,33.935 C66.5520687,34.361 65.9810687,34.573 65.4120687,34.573 Z M94.7790687,23.886 C95.8920687,24.476 96.3160687,25.858 95.7250687,26.971 C94.9230687,28.483 94.6980687,30.083 95.0380687,31.864 C95.2740687,33.102 94.4610687,34.297 93.2230687,34.533 C93.0790687,34.561 92.9350687,34.574 92.7930687,34.574 C91.7200687,34.574 90.7630687,33.813 90.5550687,32.719 C90.0210687,29.916 90.4040687,27.263 91.6940687,24.832 C92.2830687,23.719 93.6650687,23.294 94.7790687,23.886 Z M78.1870687,54.695 C75.6340687,54.695 73.4550687,53.905 72.1010687,52.461 C70.9690687,51.254 70.4880687,49.64 70.7470687,47.916 C71.1180687,45.452 72.1070687,43.669 73.6860687,42.617 C75.2590687,41.57 77.2680687,41.342 79.6600687,41.943 C80.8820687,42.25 81.6250687,43.489 81.3180687,44.712 C81.0090687,45.935 79.7650687,46.675 78.5480687,46.37 C77.4870687,46.104 76.6590687,46.121 76.2160687,46.416 C75.7660687,46.716 75.4260687,47.491 75.2600687,48.596 C75.1930687,49.044 75.3120687,49.214 75.4290687,49.339 C75.8710687,49.811 77.1430687,50.25 78.9080687,50.099 C80.1630687,49.986 81.2700687,50.921 81.3770687,52.177 C81.4860687,53.433 80.5550687,54.539 79.2990687,54.646 C78.9220687,54.678 78.5500687,54.695 78.1870687,54.695 Z M86.3840687,62.159 C87.5300687,61.645 88.8850687,62.153 89.4030687,63.303 C89.9200687,64.453 89.4070687,65.804 88.2580687,66.321 C84.2640687,68.118 80.2180687,69.017 76.1610687,69.017 C73.5360687,69.017 70.9060687,68.64 68.2830687,67.886 C68.1650687,67.852 68.0500687,67.809 67.9390687,67.756 C63.8670687,65.833 61.2170687,62.612 60.0650687,58.179 C59.7490687,56.959 60.4800687,55.713 61.7000687,55.396 C62.9150687,55.081 64.1660687,55.811 64.4830687,57.031 C65.2740687,60.075 66.9900687,62.21 69.7260687,63.552 C75.3470687,65.126 80.8000687,64.67 86.3840687,62.159 Z M64.7150687,78.652 C67.6400687,79.933 70.4040687,81.162 71.4030687,83.798 C72.0050687,85.386 71.8390687,87.17 70.8950687,89.21 C70.5150687,90.029 69.6990687,90.573 68.8250687,90.573 C68.6660687,90.573 68.5050687,90.636 68.3460687,90.602 C63.8750687,89.644 33.2810687,86.586 28.6730687,86.586 C28.6550687,86.586 28.6380687,86.586 28.6210687,86.586 C24.3590687,86.586 20.3340687,86.46 17.1500687,88.99 C16.1640687,89.775 14.7280687,89.438 13.9430687,88.45 C13.1590687,87.464 13.3230687,85.999 14.3100687,85.215 C18.7300687,81.701 23.9710687,81.586 28.5950687,81.586 C28.6140687,81.586 28.6340687,81.586 28.6540687,81.586 C33.0840687,81.586 58.6920687,84.29 67.1860687,85.559 C67.1790687,85.476 67.1620687,85.459 67.1380687,85.394 C66.8190687,84.553 64.7310687,83.639 62.8880687,82.832 C61.3710687,82.168 59.6520687,81.417 57.9780687,80.397 L57.6190687,80.178 C53.8250687,77.868 49.9020687,75.479 45.9450687,73.778 C44.8560687,73.311 44.3070687,72.087 44.6800687,70.963 C45.0530687,69.837 46.2290687,69.191 47.3770687,69.462 C49.1870687,69.897 50.6840687,69.731 51.2870687,69.035 C51.8300687,68.407 51.7720687,67.077 51.1330687,65.476 C50.9260687,65.036 50.1870687,64.123 49.4200687,63.335 C48.9080687,63.556 48.3430687,63.76 47.7190687,63.941 C47.0530687,64.133 46.3350687,64.014 45.7700687,63.616 C45.2030687,63.217 44.8480687,62.583 44.8050687,61.892 C44.5930687,58.503 46.4770687,57.708 47.2970687,57.523 C48.0060687,57.364 48.7340687,57.473 49.4510687,57.76 C49.5360687,57.612 49.5990687,57.455 49.6330687,57.289 C49.8440687,56.258 49.0390687,54.722 47.7180687,53.638 C47.2140687,53.225 46.7500687,52.972 46.3800687,52.83 C46.1630687,52.879 45.9520687,52.927 45.7480687,52.972 C45.3080687,53.07 44.9200687,53.154 44.6270687,53.236 C43.6170687,53.518 42.5470687,53.075 42.0300687,52.164 C41.5130687,51.252 41.6840687,50.106 42.4430687,49.384 C43.4630687,48.415 44.8230687,47.999 46.3020687,48.151 C47.5110687,47.837 48.9220687,47.391 49.2550687,46.932 C49.4300687,46.361 49.2710687,45.426 48.8170687,44.694 C48.4920687,44.17 48.0710687,43.835 47.6590687,43.774 C42.7420687,43.051 39.7330687,44.403 35.5700687,46.276 C33.7920687,47.076 31.7760687,47.983 29.4360687,48.775 C28.2430687,49.18 26.9470687,48.539 26.5430687,47.345 C26.3420687,46.751 26.4000687,46.132 26.6560687,45.61 C26.2210687,44.827 26.2710687,43.828 26.8620687,43.083 C28.4490687,41.083 31.1580687,32.215 31.5690687,29.381 C32.4810687,23.084 31.7420687,17.663 29.6390687,15.234 C28.6820687,14.129 27.4080687,13.582 25.7460687,13.564 C25.3700687,14.138 25.1880687,16.044 25.0990687,16.986 C25.0530687,17.473 25.0080687,17.939 24.9520687,18.36 C24.6380687,20.73 24.4410687,23.181 24.2510687,25.551 C24.0190687,28.439 23.7800687,31.426 23.3230687,34.388 L23.2110687,35.118 C21.9480687,43.371 20.0620687,55.677 8.55306874,55.678 C8.08106874,55.678 7.59506874,55.658 7.09106874,55.616 C5.83506874,55.51 4.90306874,54.406 5.00806874,53.15 C5.11306874,51.894 6.21106874,50.967 7.47306874,51.067 C15.4270687,51.748 17.1440687,44.593 18.6990687,34.428 L18.8120687,33.694 C19.2430687,30.896 19.4760687,27.993 19.7010687,25.186 C19.8960687,22.759 20.0970687,20.248 20.4270687,17.761 C20.4760687,17.391 20.5140687,16.982 20.5550687,16.555 C20.8060687,13.915 21.2720687,9 25.6600687,9 C28.6810687,9 31.2500687,10.123 33.0890687,12.248 C37.3980687,17.226 36.6200687,26.348 36.0850687,30.038 C35.7430687,32.401 34.0010687,38.647 32.1650687,42.798 C32.6830687,42.57 33.1940687,42.342 33.6970687,42.116 C38.0100687,40.176 42.0820687,38.342 48.3220687,39.26 C50.0930687,39.52 51.6470687,40.597 52.6970687,42.293 C53.8530687,44.161 54.1810687,46.517 53.5510687,48.441 C53.1990687,49.515 52.4540687,50.322 51.5180687,50.943 C53.2020687,52.667 54.4090687,55.02 54.2090687,57.467 C54.1400687,58.29 53.8780687,59.424 53.0710687,60.557 C54.3080687,61.932 55.1920687,63.341 55.3700687,63.785 C57.1530687,68.252 55.7390687,70.863 54.7370687,72.021 C54.5140687,72.28 54.2700687,72.516 54.0070687,72.731 C56.0390687,73.875 58.0310687,75.089 59.9910687,76.281 L60.3490687,76.5 C61.7610687,77.359 63.2630687,78.016 64.7150687,78.652 Z" id="Combined-Shape" fill="#ffffff" fill-rule="nonzero"></path>
    </g>
</svg>