<?xml version="1.0" encoding="UTF-8"?>
<!DOCTYPE svg  PUBLIC '-//W3C//DTD SVG 1.1//EN'  'http://www.w3.org/Graphics/SVG/1.1/DTD/svg11.dtd'>
<svg width="150px" height="74.131px" enable-background="new 15.5 7.66 150 74.131" version="1.1" viewBox="15.5 7.66 150 74.131" xml:space="preserve" xmlns="http://www.w3.org/2000/svg">
		<g fill="#EC0B77">
			<path d="m15.5 28.793h7.227c4.657 0 7.814 0.173 9.457 0.523 1.639 0.35 2.894 0.928 3.747 1.729 0.856 0.805 1.391 1.697 1.601 2.687 0.221 0.981 0.327 2.914 0.327 5.799v10.659c0 2.735-0.163 4.559-0.471 5.487-0.314 0.917-0.86 1.639-1.639 2.159-0.78 0.521-1.746 0.887-2.889 1.087-1.145 0.211-2.874 0.313-5.183 0.313h-12.177v-30.443zm9.656 5.208v20.025c1.392 0 2.244-0.223 2.565-0.686 0.32-0.456 0.479-1.698 0.479-3.731v-11.831c0-1.378-0.052-2.259-0.158-2.651-0.103-0.392-0.351-0.675-0.737-0.854-0.379-0.181-1.094-0.272-2.149-0.272z"/>
			<path d="m50.721 28.793v3.969h-9.539v-3.969h9.539zm0 5.489v24.955h-9.539v-24.955h9.539z"/>
			<path d="m63.196 34.282-0.162 2.372c0.715-0.941 1.575-1.645 2.568-2.115 0.994-0.471 2.126-0.709 3.392-0.709 2.475 0 4.427 0.945 5.851 2.824 0.775-0.941 1.66-1.645 2.641-2.115 0.975-0.471 2.054-0.709 3.248-0.709 1.571 0 2.879 0.314 3.914 0.945 1.035 0.621 1.694 1.392 1.977 2.301 0.291 0.91 0.439 2.383 0.439 4.424v17.737h-8.99v-16.27c0-2.127-0.084-3.448-0.261-3.957-0.176-0.504-0.587-0.76-1.226-0.76-0.655 0-1.084 0.248-1.277 0.75-0.184 0.502-0.285 1.824-0.285 3.967v16.268h-8.988v-15.848c0-2.446-0.071-3.918-0.223-4.407-0.143-0.485-0.543-0.73-1.197-0.73-0.412 0-0.762 0.124-1.056 0.385-0.29 0.259-0.454 0.57-0.483 0.938-0.028 0.369-0.043 1.16-0.043 2.359v17.303h-8.988v-24.953h9.149z"/>
		</g>
		<path d="m90.529 28.793h9.632c3.038 0 5.343 0.193 6.91 0.583 1.567 0.387 2.831 1.172 3.796 2.356 0.961 1.184 1.44 3.089 1.44 5.72 0 1.782-0.336 3.017-1.016 3.722-0.686 0.706-2.025 1.243-4.026 1.617 2.229 0.417 3.75 1.1 4.537 2.061 0.795 0.961 1.194 2.427 1.194 4.415v2.822c0 2.057-0.287 3.582-0.855 4.571-0.573 0.993-1.489 1.664-2.746 2.024-1.25 0.376-3.816 0.552-7.707 0.552h-11.159v-30.443zm9.651 5.208v6.77c0.407-0.016 0.738-0.02 0.967-0.02 0.947 0 1.547-0.187 1.808-0.569 0.262-0.388 0.395-1.484 0.395-3.283 0-0.956-0.111-1.619-0.321-2.007-0.223-0.381-0.499-0.622-0.841-0.718-0.348-0.104-1.014-0.162-2.008-0.173zm0 11.512v8.512c1.363-0.033 2.229-0.209 2.6-0.52 0.381-0.314 0.569-1.09 0.569-2.319v-2.834c0-1.307-0.178-2.099-0.502-2.371-0.343-0.277-1.229-0.437-2.667-0.468z" fill="#1E1E1E"/>
		<path d="m128.13 37.797v13.278c0 2.046-0.062 3.258-0.192 3.63-0.131 0.373-0.543 0.565-1.223 0.565-0.645 0-1.04-0.181-1.188-0.548-0.148-0.362-0.224-1.513-0.224-3.457v-14.304l-9.031-2.68h-0.225v16.829c0 2.146 0.054 3.581 0.157 4.301 0.108 0.715 0.381 1.412 0.814 2.077 0.436 0.67 1.115 1.194 2.033 1.599 0.914 0.4 2.067 0.606 3.461 0.606 1.223 0 2.296-0.216 3.244-0.633 0.943-0.422 1.731-1.055 2.371-1.896l-0.159 2.071h9.422v-18.693l-9.26-2.745z" fill="#1E1E1E"/>
		<path d="m151.82 44.849v11.148l-2.871-12.03-8.415-2.493s4.107 16.788 4.107 16.99c0 0.416-0.412 0.676-0.824 0.796-0.415 0.119-1.346 0.177-2.784 0.177v4.677l4.327-0.058c2.564 0 4.437-0.158 5.604-0.479 1.176-0.32 2.085-0.816 2.743-1.495 0.402-0.406 0.666-0.897 0.894-1.605 0.021-0.076 3.946-13.601 3.946-13.601-1e-3 0.052-6.727-2.027-6.727-2.027z" fill="#1E1E1E"/>
		<path d="m163.5 19.566-2.021-0.604-36.696-10.862c-6.722-1.797-13.688 2.071-15.677 8.791-1.927 6.483 1.494 13.278 6.668 15.381l40.167 11.917c2.35 0.667 3.749-1.012 4.222-2.602l5.176-17.439c0.523-1.804-0.269-3.68-1.839-4.582zm-46.623 2.098c-1.27-0.375-1.989-1.705-1.615-2.969 0.375-1.271 1.704-1.995 2.978-1.611 1.263 0.373 1.985 1.704 1.613 2.969-0.376 1.263-1.716 1.988-2.976 1.611z" fill="#EC0B77"/>
		<path d="m118.09 19.273c-0.221-0.421-1.415-1.469-1.743-1.97-0.202 0.116-0.439 0.333-0.611 0.506l0.717 0.73c0.261 0.238 0.543 0.498 0.713 0.676-4.077 0.391-8.814 0.256-12.742-0.73-2.654-0.659-5.544-2.422-6.273-4.909-0.77-2.632 2.838-2.995 4.919-3.028 2.885-0.035 5.559 0.983 7.858 2.544 0.143-0.195 0.3-0.391 0.448-0.565-2.842-1.883-6.246-2.976-9.89-2.599-1.88 0.201-4.036 0.747-4.2 2.727-0.171 2.088 1.625 3.84 3.385 4.997 2.599 1.694 5.943 2.145 9.085 2.405 2.392 0.196 5.276 0.056 7.672-0.149 0.089-8e-3 0.176-0.021 0.271-0.032 0.063 3e-3 0.133-5e-3 0.189-0.029 0.155-0.049 0.24-0.164 0.27-0.292v-0.011c6e-3 -0.023 6e-3 -0.046 6e-3 -0.072-2e-3 -0.071-0.026-0.143-0.074-0.199z" fill="#071923"/>
		<path d="m137.29 40.344" fill="none" stroke="#231F20" stroke-miterlimit="10"/>
			<path d="m165.5 56.836c0 1.576-1.268 2.825-2.876 2.825-1.609 0-2.893-1.249-2.893-2.825s1.283-2.81 2.909-2.81c1.592 0 2.86 1.234 2.86 2.81zm-5.05 0c0 1.253 0.943 2.243 2.19 2.243 1.216 0.017 2.136-0.99 2.136-2.226 0-1.249-0.92-2.262-2.17-2.262-1.213 2e-3 -2.156 1.014-2.156 2.245zm1.729 1.458h-0.649v-2.812c0.256-0.03 0.617-0.084 1.077-0.084 0.535 0 0.771 0.084 0.963 0.225 0.164 0.119 0.287 0.326 0.287 0.601 0 0.337-0.258 0.562-0.582 0.666v0.035c0.274 0.085 0.409 0.305 0.501 0.684 0.081 0.428 0.149 0.584 0.203 0.686h-0.687c-0.086-0.102-0.136-0.345-0.226-0.686-0.051-0.293-0.221-0.428-0.578-0.428h-0.309v1.113zm0.017-1.576h0.308c0.36 0 0.651-0.121 0.651-0.414 0-0.253-0.19-0.425-0.604-0.425-0.167 0-0.286 0.017-0.354 0.031v0.808z" fill="#EC0B77"/>
		<g fill="#fff">
			<path d="m122.13 29.776-2.073-0.626 1.365-3.072 2.036 0.618-1.328 3.08zm-0.667-4.384 0.503-1.675 2.435 0.61 0.294-0.953-2.253-0.68 0.541-1.773 2.243 0.683 0.233-0.764-2.344-0.71 2.26-7.469 8.158 2.467-2.26 7.472-2.521-0.76-0.229 0.761 2.502 0.755-0.539 1.773-2.496-0.755-0.235 0.781 2.764 0.689-0.517 1.715-8.539-2.167zm6.231-10.076-1.355-0.409-0.283 0.934 0.787 0.238 0.082 1.771 0.769-2.534zm-0.869 2.859-0.823-0.251-0.112-1.53-0.73 2.421 1.353 0.407 0.312-1.047zm-3.741 11.891 0.626-3.295 1.67 0.506-0.653 3.282-1.643-0.493zm2.118 0.641 0.66-3.283 1.563 0.472-0.604 3.301-1.619-0.49zm6.284-14.245-1.356-0.407-0.815 2.706 1.046-1.618 0.844 0.256 0.281-0.937zm-0.399 1.316-0.957 1.396-0.862-0.262-0.316 1.049 1.353 0.412 0.782-2.595zm-3.846 13.544 0.619-3.294 1.699 0.513-0.663 3.286-1.655-0.505zm10.526-9.629-0.988 3.261 2.648 0.801-2.563 8.481-7.735-2.342 2.564-8.48 1.677 0.509 2.499-8.254 3.408 1.032-0.973 3.221 2.917 0.88-0.54 1.774-2.914-0.883zm-1.839 4.838-1.639-0.495-1.554 5.134 1.639 0.495 1.554-5.134z"/>
			<path d="m151.86 38.793-1.684-2.549-3.717-1.124-2.85 1.175-4.459-1.349 2.85-1.176-1.354-0.409 2.68-8.845 15.205 4.601-2.677 8.846-1.331-0.405 1.721 2.561-4.384-1.326zm-8.805-15.168 1.56-5.166 16.161 4.89-1.561 5.165-16.16-4.889zm5.784-2.091-1.493-0.453-0.568 1.875 1.492 0.452 0.569-1.874zm5.74 8.184-8.299-2.51-0.314 1.035 8.302 2.514 0.311-1.039zm-0.689 2.269-8.294-2.51-0.312 1.017 8.299 2.512 0.307-1.019zm-0.678 2.248-8.301-2.51-0.305 1.018 8.299 2.509 0.307-1.017zm-0.279-11.463-1.509-0.457-0.573 1.875 1.517 0.458 0.565-1.876zm4.098 1.241-1.494-0.453-0.563 1.876 1.494 0.451 0.563-1.874z"/>
		</g>
	<g fill="#1E1E1E">
		<path d="m15.947 76.346h9.809v0.784h-9.809v-0.784z"/>
		<path d="m32.625 75.339c-0.021 0.074-0.105 0.106-0.233 0.117-0.148 1.059-0.434 2.605-0.71 3.667l1.356-0.308 0.074 0.623c-1.493 0.372-3.061 0.765-4.068 0.996 0 0.086-0.064 0.149-0.138 0.17l-0.296-0.815c0.678-0.138 1.579-0.329 2.542-0.55l-0.084-0.021c0.265-1.062 0.562-2.862 0.709-4.102l0.848 0.223zm0.297-1.248v0.676h-4.142v-0.676h1.759v-2.035l0.879 0.054c-0.012 0.072-0.064 0.126-0.201 0.146v1.835h1.705zm-3.104 1.121c0.275 1.177 0.456 2.69 0.477 3.708l-0.636 0.096c0-0.995-0.18-2.521-0.435-3.698l0.594-0.106zm8.644-0.307h-2.7v2.184h2.235v4.641h-0.73v-0.48h-3.37v0.52h-0.699v-4.681h1.843v-5.159l0.933 0.053c-0.011 0.073-0.064 0.127-0.212 0.146v2.089h2.7v0.687zm-1.195 5.678v-2.816h-3.37v2.816h3.37z"/>
		<path d="m51.052 74.662h-3.189c0.265 3.432 1.103 6.376 2.247 6.376 0.307 0 0.444-0.614 0.508-2.055 0.169 0.159 0.433 0.329 0.636 0.404-0.138 1.861-0.423 2.402-1.208 2.402-1.727 0-2.627-3.294-2.924-7.13h-5.625v-0.7h5.573c-0.032-0.656-0.053-1.323-0.064-1.99l0.994 0.054c0 0.096-0.064 0.147-0.223 0.169 0 0.593 0.01 1.187 0.042 1.768h3.23l3e-3 0.702zm-6.494 2.352v3.156c0.773-0.17 1.578-0.35 2.362-0.529l0.054 0.626c-1.813 0.456-3.761 0.91-4.979 1.177-0.012 0.083-0.075 0.146-0.149 0.167l-0.296-0.825c0.625-0.116 1.419-0.274 2.298-0.467v-3.305h-1.981v-0.679h4.746v0.679h-2.055zm4.461-5.033c0.571 0.382 1.26 0.932 1.588 1.313l-0.497 0.468c-0.329-0.393-0.997-0.987-1.568-1.379l0.477-0.402z"/>
		<path d="m59.595 71.938c-0.022 0.087-0.107 0.139-0.212 0.159 1.027 1.398 2.934 2.998 4.576 3.847-0.18 0.169-0.35 0.412-0.478 0.624-1.662-0.975-3.559-2.584-4.543-3.952-0.868 1.314-2.616 2.945-4.45 4.026-0.095-0.16-0.296-0.413-0.445-0.562 1.855-1.039 3.687-2.787 4.513-4.196l1.039 0.054zm-0.276 7.015v1.851h4.27v0.657h-9.163v-0.657h4.152v-1.851h-3.263v-0.649h3.263v-1.757h-2.796v-0.646h6.451v0.646h-2.914v1.757h3.304v0.649h-3.304z"/>
		<path d="m68.89 79.005c0.466-0.138 0.942-0.286 1.419-0.435l0.084 0.625c-1.218 0.403-2.5 0.814-3.305 1.071-0.011 0.084-0.063 0.137-0.137 0.168l-0.264-0.794c0.413-0.118 0.942-0.265 1.513-0.435v-2.658h-1.238v-0.667h1.238v-2.341h-1.387v-0.668h3.539v0.668h-1.462v2.341h1.25v0.668h-1.25v2.457zm0.582 1.016c0.722-0.401 1.802-1.102 2.83-1.768l0.222 0.581c-0.9 0.637-1.875 1.293-2.5 1.706 0.011 0.085-0.032 0.158-0.085 0.189l-0.467-0.708zm4.132-5.497v0.35c0.424 2.775 1.25 4.31 3.21 5.624-0.169 0.117-0.371 0.35-0.457 0.54-1.386-0.984-2.225-2.066-2.754-3.549v3.358c0 0.858-0.434 0.933-2.045 0.933-0.042-0.19-0.158-0.498-0.253-0.688 0.276 9e-3 0.529 9e-3 0.742 9e-3 0.826 0 0.867 0 0.867-0.243v-6.334h-2.828v-0.669h2.828v-1.927l0.902 0.053c-0.012 0.085-0.075 0.128-0.212 0.147v1.727h3.072v0.669h-3.072zm-2.681 0.73c0.498 0.595 1.038 1.42 1.25 1.96l-0.582 0.308c-0.212-0.551-0.731-1.398-1.229-2.013l0.561-0.255zm3.856-3.22c0.584 0.317 1.293 0.807 1.634 1.176l-0.425 0.444c-0.328-0.37-1.016-0.89-1.6-1.218l0.391-0.402zm1.855 3.528c-0.043 0.054-0.126 0.075-0.233 0.075-0.35 0.538-0.975 1.345-1.44 1.853-0.011 0-0.498-0.317-0.498-0.317 0.456-0.519 1.081-1.408 1.431-2.032l0.74 0.421z"/>
		<path d="m82.486 76.632c-0.18-0.36-0.392-0.73-0.604-1.048l0.531-0.225c0.476 0.688 0.962 1.61 1.143 2.214l-0.562 0.264c-0.052-0.188-0.138-0.411-0.244-0.654l-0.932 0.052v4.533h-0.635v-4.503c-0.561 0.034-1.07 0.055-1.472 0.064-0.021 0.074-0.086 0.118-0.16 0.138l-0.19-0.793h0.73c0.233-0.297 0.478-0.637 0.732-0.996-0.318-0.488-0.869-1.124-1.355-1.588 0.222-0.235 0.296-0.342 0.37-0.458 0.116 0.107 0.233 0.212 0.35 0.328 0.35-0.614 0.72-1.439 0.943-2.033l0.763 0.318c-0.032 0.063-0.116 0.085-0.233 0.085-0.265 0.604-0.698 1.449-1.082 2.045 0.233 0.254 0.457 0.507 0.615 0.74 0.434-0.677 0.836-1.388 1.133-1.98l0.742 0.35c-0.032 0.053-0.116 0.085-0.232 0.085-0.531 0.911-1.356 2.172-2.087 3.094l1.736-0.032zm-1.695 1.59c-0.021 0.094-0.104 0.118-0.2 0.105-0.138 0.89-0.372 1.917-0.678 2.542-0.127-0.084-0.361-0.191-0.519-0.265 0.296-0.595 0.508-1.61 0.636-2.575l0.761 0.193zm2.097 2.01c-0.095-0.55-0.371-1.398-0.657-2.046l0.541-0.168c0.307 0.645 0.583 1.484 0.679 2.024l-0.563 0.19zm6.049-7.786v8.486c0 0.75-0.306 0.857-1.758 0.836-0.031-0.17-0.127-0.466-0.212-0.646 0.255 0.011 0.498 0.011 0.688 0.011 0.551 0 0.615 0 0.615-0.2v-7.851h-4.036v8.708h-0.657v-9.345h5.36zm-3.347 6.697c0 0.286 0.042 0.37 0.254 0.37h1.334c0.169 0 0.456-0.01 0.604-0.042 0.021 0.158 0.043 0.433 0.065 0.583-0.138 0.042-0.393 0.042-0.659 0.042h-1.355c-0.708 0-0.869-0.245-0.869-0.965v-1.62h-0.476v-0.582h1.398v-1.155l0.827 0.052c-0.01 0.064-0.064 0.119-0.191 0.14v0.964h1.483v0.582h-2.415v1.631zm-1.006-3.379v-0.582h0.646c-0.064-0.402-0.276-1.028-0.499-1.505l0.467-0.158c0.254 0.467 0.466 1.091 0.54 1.493l-0.476 0.172h1.695l-0.36-0.151c0.211-0.434 0.477-1.134 0.604-1.589l0.709 0.255c-0.031 0.053-0.105 0.095-0.212 0.095-0.157 0.394-0.423 0.986-0.646 1.391h0.89v0.582h-3.358v-3e-3z"/>
		<path d="m93.995 79.544c-0.021 0.063-0.085 0.106-0.201 0.095-0.255 0.774-0.678 1.609-1.155 2.121-0.117-0.107-0.349-0.276-0.507-0.372 0.454-0.467 0.856-1.271 1.068-2.075l0.795 0.231zm1.664-7.213v6.737h-2.987v-6.737h2.987zm-0.648 2.055v-1.45h-1.714v1.45h1.714zm0 2.034v-1.462h-1.714v1.462h1.714zm0 2.045v-1.473h-1.714v1.472l1.714 1e-3zm0.097 0.848c0.348 0.507 0.729 1.197 0.899 1.641-0.128 0.063-0.254 0.118-0.582 0.287-0.16-0.455-0.529-1.166-0.856-1.687l0.539-0.241zm6.97 0.03v0.562h-0.784v1.113c0 0.73-0.308 0.763-1.917 0.763-0.032-0.182-0.117-0.423-0.201-0.594 0.338 0.011 0.667 0.021 0.911 0.021 0.498 0 0.553 0 0.553-0.201v-1.102h-3.37v1.876h-0.646v-1.876h-0.805v-0.562h0.805v-2.584h1.981v-0.775h-2.669v-0.549h1.517v-0.72h-0.913v-0.541h0.913v-0.698h-1.285v-0.551h1.285v-0.986l0.845 0.053c-0.01 0.064-0.062 0.118-0.2 0.138v0.796h1.694v-0.986l0.849 0.053c-0.013 0.075-0.064 0.118-0.202 0.138v0.796h1.367v0.551h-1.367v0.698h1.081v0.541h-1.081v0.72h1.588v0.549h-2.773v0.775h2.044v2.584h0.78zm-3.474-2.033h-1.335v0.743h1.335v-0.743zm-1.335 1.271v0.762h1.335v-0.762h-1.335zm0.826-5.105v0.698h1.695v-0.698h-1.695zm0 1.239v0.72h1.695v-0.72h-1.695zm2.543 2.595h-1.388v0.743h1.388v-0.743zm-1.388 2.033h1.388v-0.762h-1.388v0.762z"/>
		<path d="m113.86 75.084 0.489 0.214c-0.021 0.052-0.064 0.096-0.107 0.115-0.466 1.845-1.356 3.232-2.499 4.27 0.867 0.636 1.917 1.111 3.157 1.41-0.169 0.147-0.383 0.455-0.499 0.655-1.292-0.339-2.373-0.869-3.273-1.569-0.995 0.742-2.16 1.262-3.391 1.6-0.084-0.188-0.264-0.476-0.401-0.635 1.165-0.275 2.277-0.742 3.242-1.44-1.124-1.049-1.918-2.416-2.511-4.068h-0.011c-0.148 1.886-0.7 4.068-2.66 5.922-0.105-0.182-0.36-0.456-0.518-0.582 2.34-2.203 2.499-4.884 2.499-6.834v-0.932h-1.927v-0.7h6.068l0.158-0.031 0.457 0.127c-0.011 0.063-0.044 0.117-0.063 0.169-0.128 0.583-0.352 1.473-0.571 2.341h2.224l0.137-0.032zm-5.751-1.874v0.351c0.572 2.371 1.515 4.311 3.072 5.667 0.975-0.858 1.758-1.992 2.191-3.433h-2.065l-0.158 0.569-0.721-0.104c0.266-0.932 0.583-2.161 0.784-3.051h-3.103v1e-3z"/>
		<path d="m117.65 73.041v-0.626h5.189v0.626h-1.726v1.621h1.367v6.831h-0.614v-0.518h-3.243v0.655h-0.603v-6.969h1.271v-1.621h-1.641zm1.728 2.245h-0.754v3.36h3.243v-1.368c-0.075 0.317-0.212 0.424-0.445 0.424h-0.338c-0.394 0-0.509-0.117-0.509-0.624v-1.79h-0.751v0.688c0 0.669-0.14 1.6-0.765 2.258-0.074-0.096-0.265-0.234-0.37-0.288 0.582-0.604 0.688-1.376 0.688-1.979v-0.681h1e-3zm-0.754 5.086h3.243v-1.146h-3.243v1.146zm1.951-5.71v-1.621h-0.743v1.621h0.743zm0.774 2.573c0.116 0 0.146-0.063 0.157-0.677 0.086 0.073 0.233 0.126 0.361 0.168v-1.44h-0.838v1.779c0 0.148 0.012 0.17 0.095 0.17h0.225zm2.636 3.221c0 0.371 0.095 0.443 0.584 0.443h1.683c0.488 0 0.562-0.274 0.614-1.853 0.158 0.127 0.458 0.244 0.646 0.296-0.085 1.758-0.296 2.226-1.219 2.226h-1.791c-0.932 0-1.218-0.224-1.218-1.123v-4.236h3.156v-3.04h-3.262v-0.669h3.961v4.873h-0.7v-0.497h-2.457v3.58h3e-3z"/>
		<path d="m132.69 76.165v3.465c0.826 1.261 2.342 1.261 4.247 1.261 1.146 0 2.491-0.032 3.317-0.087-0.085 0.172-0.213 0.51-0.234 0.723-0.732 0.031-1.896 0.051-2.944 0.051-2.183 0-3.633 0-4.704-1.311-0.52 0.465-1.08 0.941-1.536 1.302 0.011 0.095-0.02 0.138-0.096 0.17l-0.411-0.784c0.507-0.339 1.131-0.827 1.673-1.293v-2.817h-1.558v-0.678l2.246-2e-3zm-1.58-3.972c0.71 0.455 1.537 1.154 1.897 1.673l-0.563 0.477c-0.351-0.529-1.154-1.249-1.865-1.727l0.531-0.423zm8.985 4.703h-2.819c0.444 1.408 1.367 2.353 2.839 2.787-0.157 0.137-0.359 0.401-0.455 0.594-1.44-0.498-2.361-1.463-2.892-2.903-0.308 0.995-1.069 2.046-2.859 2.859-0.096-0.158-0.319-0.4-0.477-0.529 1.917-0.794 2.541-1.854 2.744-2.809h-2.839v-0.656h2.912c0.011-0.126 0.011-0.255 0.011-0.369v-1.22h-2.573v-0.656h4.216l-0.539-0.245c0.36-0.484 0.815-1.279 1.06-1.82l0.847 0.317c-0.031 0.074-0.105 0.095-0.233 0.106-0.275 0.488-0.73 1.187-1.103 1.642h1.845v0.656h-2.808v1.22c0 0.114 0 0.243-0.01 0.369h3.137v0.657h-4e-3zm-5.002-2.902c-0.135-0.488-0.54-1.239-0.962-1.779l0.603-0.254c0.435 0.528 0.859 1.249 0.997 1.737l-0.638 0.296z"/>
	</g>
</svg>
