<?xml version="1.0" encoding="utf-8"?>
<!-- Generator: Adobe Illustrator 15.0.0, SVG Export Plug-In . SVG Version: 6.00 Build 0)  -->
<!DOCTYPE svg PUBLIC "-//W3C//DTD SVG 1.1//EN" "http://www.w3.org/Graphics/SVG/1.1/DTD/svg11.dtd">
<svg version="1.1" id="Layer_1" xmlns="http://www.w3.org/2000/svg" xmlns:xlink="http://www.w3.org/1999/xlink" x="0px" y="0px"
	 width="147.402px" height="52.626px" viewBox="347.253 271.324 147.402 52.626"
	 enable-background="new 347.253 271.324 147.402 52.626" xml:space="preserve">
<g>
	<path fill="#3769B0" d="M432.582,306.591c0.97-3.419,1.334-7.447,2.058-11.115c-1.195-0.163-2.693,1.147-4.734,0.823
		c1.563-1.249,3.398-2.228,5.146-3.292c1.974-7.768,4.46-15.024,13.171-16.054c-6.746,1.76-8.936,8.078-10.701,14.819
		c1.864,0.01,3.935-1.554,6.38-1.647c-2.083,1.621-4.4,3.009-6.997,4.116c-0.485,3.973-1.487,7.432-2.059,11.32
		c-0.71,1.759-0.99,3.949-1.851,5.557c-1.415,2.84-3.011,5.497-5.559,7.203c1.347-2.153,2.857-4.142,3.705-6.791
		C431.747,310.01,432.21,308.344,432.582,306.591L432.582,306.591z"/>
	<path fill="#3D8E82" d="M425.789,277.158c-2.858,8.05-5.909,17.692-6.174,29.021C416.33,294.769,421.552,284.327,425.789,277.158
		L425.789,277.158z"/>
	<path fill="#D42128" d="M381.538,282.098v-0.207c1.409-0.038,2.755-0.011,3.911,0.207c-1.816,1.545-5.073,1.651-7.409,2.675
		c0.235-0.604,0.121-0.765-0.411-1.03c-0.648-0.099-0.466,0.632-1.235,0.412c0.38-0.397,0.376-0.163,0.206-0.824
		c1.281-0.571,2.864-0.841,4.322-1.234c-0.089,0.252-0.263,0.422-0.618,0.412c0.309,0.68,0.503-0.428,1.029-0.207
		c-0.32,0.366-0.579,0.793-1.441,0.618c0.89,0.293-0.578,0.904-0.823,0.617c0.109,0.166,0.214,0.333,0.206,0.617
		C380.096,283.493,381.28,283.483,381.538,282.098z"/>
	<path fill="#D82128" d="M381.538,282.098c-0.258,1.384-1.442,1.395-2.264,2.058c0.009-0.284-0.097-0.452-0.206-0.618
		c0.246,0.287,1.714-0.324,0.823-0.617c0.861,0.176,1.12-0.251,1.441-0.617c-0.526-0.222-0.72,0.886-1.029,0.206
		c0.354,0.011,0.527-0.159,0.618-0.411C381.127,282.098,381.332,282.098,381.538,282.098z"/>
	<path fill="#D82128" d="M376.599,283.333c0.171,0.661,0.175,0.427-0.206,0.824c0.769,0.219,0.586-0.511,1.235-0.412
		c0.533,0.265,0.646,0.426,0.411,1.03c-1.208,0.371-2.408,0.748-3.293,1.441c-0.428-0.115-0.436-0.321-0.206-0.618
		c-0.353-0.009-0.533,0.153-0.618,0.411c0.509,0.16,0.518,1.023-0.206,1.03c0.151,0.192,0.374,0.312,0.618,0.411
		c-0.187,0.359-0.461,0.793-0.823,0.411c-0.076,0.35,0.16,0.389,0.411,0.412c-0.106,0.304-0.304,0.518-0.411,0.823
		c-0.297,0.11-0.502-0.803-0.618-0.206c-0.534-0.651,0.561-1.079-0.206-1.647c0.86,0.744,0.239,0.64,1.235,0.617
		c-0.457-0.504-0.43-1.491-1.029-1.852c0.09-0.253,0.264-0.422,0.618-0.411c-0.056-0.484-0.912-0.126-0.823,0.206
		c-0.075,0.35,0.161,0.389,0.412,0.412c-0.753,0.855-0.744-1.312-1.029-0.207c-0.241-0.033-0.174-0.375-0.206-0.617
		C373.347,284.609,374.935,283.932,376.599,283.333z"/>
	<path fill="#D42128" d="M388.948,300.21c-2.019-1.77-5.144-3.089-5.763-5.763c-1.666-7.187,7.839-9.702,11.525-12.555
		c-1.66,3.41-7.79,5.552-8.645,9.879c-0.899,4.553,4.815,5.001,6.586,8.028v0.205c-0.518,0.107-1.353,0.202-1.235,1.441
		c0.312-1.149,0.853,0.104,0.823,1.029c-0.23-0.594-0.65-0.997-1.44-1.029c-0.516-0.307-1.133-0.513-1.441-1.029v-0.207
		c0.809,0.084,0.879,0.905,1.647,1.03c0.456-0.107,0.017-2.187,1.029-1.853c-0.245-0.855-0.705,0.158-1.234,0.206
		c-0.223,0.528,0.625,0.981,0,1.235c-0.487-0.076-0.656-1.521-1.441-0.618c-0.608-0.179,0.478-0.308,0.206-0.823
		c0.582-0.17,0.534,0.291,1.03,0.206c0.77-0.378,0.186-1.164-0.412-1.646c-0.104-0.035-0.217,1.167-0.411,0.206
		c-0.577,0.201,0.298,0.549-0.207,0.823c0.513-0.055,0.688-0.772,1.235-0.206c-0.051,0.259-0.41,0.208-0.412,0
		c-0.288,0.072-0.018,0.362,0.207,0.412c-0.147,0.267-1.176,0.024-1.235,0C389.154,299.344,389.436,299.9,388.948,300.21
		L388.948,300.21z M387.713,287.038c0.115,0,0.234-0.167,0-0.206c-0.355,0.468-1.604,0.788-1.235,0.823
		c0.115,0.43,0.62-0.306,0.206,0.412c0.666,0.254,0.157-0.666,0.823-0.412c-0.661,1.579-1.67,0.394-1.441,1.647
		c0.045-0.16,0.172-0.24,0.411-0.206c0.046,0.159,0.005,0.406,0.206,0.411c-0.061-1.021,0.82-1.102,1.235-1.647
		c-0.183-0.061-0.901-0.557-0.411-0.617c0.301,0.179,0.652,0.308,0.617,0.823c-0.191,0.22-0.758,0.064-0.617,0.618
		c0.389,0.046,0.454-0.232,0.823-0.206C388.462,287.661,388.069,287.368,387.713,287.038z"/>
	<path fill="#D42128" d="M371.865,285.391c0.032,0.243-0.036,0.584,0.206,0.617c0.285-1.105,0.277,1.062,1.029,0.207
		c-0.251-0.023-0.487-0.062-0.411-0.412c-0.088-0.332,0.767-0.69,0.823-0.206c-0.355-0.011-0.527,0.158-0.618,0.411
		c0.599,0.362,0.572,1.349,1.029,1.852c-0.997,0.022-0.375,0.126-1.235-0.617c0.767,0.568-0.328,0.996,0.206,1.647
		c0.115-0.597,0.322,0.315,0.618,0.206c0.107-0.305,0.304-0.519,0.411-0.823c-0.251-0.023-0.488-0.062-0.411-0.412
		c0.362,0.381,0.637-0.052,0.823-0.411c-0.244-0.1-0.467-0.219-0.618-0.411c0.723-0.006,0.715-0.869,0.206-1.03
		c0.084-0.258,0.266-0.42,0.618-0.411c-0.23,0.296-0.222,0.502,0.206,0.618c-0.1,5.045-3.456,6.835-4.734,10.703
		c3.007-1.248,5.096-3.412,8.645-4.116c-2.822,2.599-6.296,4.544-9.262,6.998c-0.234,3.252,0.606,5.431,2.882,6.174
		c-0.061,0.429-0.557-0.307-0.618,0.411c0.438-0.368,0.311,1.232,0.823,0.617c0.595,0.284-0.346,0.729-0.823,0.617
		c0.16-0.183,0.221-0.465,0.206-0.823c-0.277,0.136-0.383,0.439-0.411,0.823c0.884,0.147,2.086,0.338,2.47-0.205
		c0.062-0.543-0.285-0.676-0.823-0.618c0.362,0.386,0.86,0.438,0.206,0.823c-0.529-0.091-0.288-0.745-1.029-1.029
		c-0.059-0.333,0.194-0.354,0.206-0.617c2.854,0.111,4.084-1.403,5.763-2.47c-0.273,0.755-0.944,1.113-1.235,1.853
		c0.534,0.508,0.615,0.193,1.235,0.617c0.276-0.137,0.384-0.441,0.412-0.824c-0.813-0.035,0.065,0.315-0.412,0.617
		c-0.296,0.11-0.502-0.802-0.617-0.206c-0.604-0.174,0.123-0.662,0-1.03c0.259,0.052,0.208,0.41,0,0.413
		c0.163,0.521,0.72-0.58,1.029,0c0.042-0.507,1.25-2.071-0.206-1.647v-0.206c0.635-0.463,1.184-1.012,1.647-1.646
		c0.548-0.207,0.678-0.831,1.029-1.235c1.103,8.252-14.657,12.192-13.995,1.03c-1.538,0.313-2.559,1.146-4.116,1.44
		c2.114-2.276,4.846-3.938,5.557-7.616c0.192-0.126,0.759-0.479,0.618,0.206c0.104-1.654,1.994-2.293,2.058-3.705
		c-0.513,1.236-2.098,1.669-1.852,3.087c-0.165-0.109-0.334-0.214-0.618-0.206c0.875-2.899,2.296-5.25,3.911-7.409
		c-1.887,0.242-3.957,2.08-6.792,2.058C367.521,287.497,369.785,286.535,371.865,285.391L371.865,285.391z"/>
	<path fill="#D82128" d="M388.33,288.479c-0.369-0.026-0.434,0.251-0.823,0.206c-0.142-0.553,0.425-0.397,0.617-0.618
		c0.036-0.515-0.316-0.644-0.617-0.823c-0.49,0.061,0.229,0.557,0.411,0.617c-0.415,0.545-1.294,0.626-1.235,1.647
		c-0.2-0.005-0.16-0.251-0.206-0.411c-0.239-0.034-0.366,0.045-0.411,0.206c-0.229-1.254,0.78-0.068,1.441-1.647
		c-0.666-0.254-0.157,0.667-0.823,0.411c0.414-0.717-0.091,0.018-0.206-0.411c-0.369-0.036,0.88-0.355,1.235-0.823
		c0.234,0.04,0.115,0.207,0,0.206C388.069,287.368,388.462,287.661,388.33,288.479z"/>
	<path fill="#D42128" d="M410.97,294.859c0.889-7.08-5.338-8.782-12.555-8.438c5.892-2.308,13.592-0.299,15.024,4.939
		C412.971,291.861,412.03,293.641,410.97,294.859z"/>
	<path fill="#D82128" d="M388.948,300.21c0.488-0.31,0.206-0.866,0.411-1.028c0.06,0.024,1.089,0.267,1.235,0
		c-0.224-0.05-0.495-0.34-0.207-0.412c0.003,0.208,0.361,0.259,0.412,0c-0.548-0.567-0.722,0.15-1.235,0.206
		c0.504-0.274-0.371-0.622,0.206-0.823c0.194,0.962,0.308-0.241,0.411-0.206c0.599,0.481,1.183,1.268,0.412,1.646
		c-0.496,0.085-0.447-0.376-1.03-0.206c0.272,0.516-0.813,0.645-0.206,0.823c0.785-0.902,0.954,0.542,1.441,0.618
		c0.625-0.254-0.223-0.707,0-1.235c0.53-0.048,0.989-1.062,1.234-0.206c-1.013-0.334-0.573,1.746-1.029,1.853
		c-0.768-0.124-0.838-0.945-1.647-1.03v0.207C389.12,300.45,388.993,300.37,388.948,300.21L388.948,300.21z"/>
	<path fill="#EA8B3A" d="M463.662,294.859c0.527-0.009,0.251,0.152,0.206,0.411c-5.119,2.105-12.209,7.112-18.936,3.706
		c-1.139,0.303-2.112,0.77-3.704,0.616c0.835-0.467,1.881-0.726,2.674-1.234c-1.897-4.761,3.798-9.814,8.646-7.82
		c0.559,4.215-3.382,5.658-5.969,7.409C452.781,299.714,458.76,296.396,463.662,294.859z M444.933,297.329
		c1.638-0.911,5.373-2.573,4.94-5.557C447.168,292.226,443.457,294.723,444.933,297.329z"/>
	<path fill="#D82128" d="M368.778,294.447c0.283-0.009,0.452,0.097,0.618,0.207c-0.246-1.419,1.339-1.851,1.852-3.088
		c-0.064,1.411-1.954,2.051-2.058,3.705c0.142-0.685-0.426-0.332-0.618-0.206C368.554,294.772,368.538,294.482,368.778,294.447z"/>
	<path fill="#D42128" d="M398.415,304.533c-1.412-6.18,1.469-11.543,2.264-16.878C403.676,292.141,401.109,301.191,398.415,304.533z
		"/>
	<path fill="#D42128" d="M410.148,296.299c0.069,0.337,0.026,0.94-0.411,1.03c0.297,0.184,1.388,0.487,1.234-0.617
		c-0.493-0.082,0.115,0.937-0.617,0.617c-0.626-0.363,0.562-0.638,0-0.824c0.53-0.148,0.771-0.148,0.412-0.823
		c0.867-0.579,0.896-0.009,0.824-1.029c0.792,0.64,0.382,0.124,0.617-0.412c0.35-0.075,0.389,0.16,0.411,0.412
		c0.241-0.033,0.174-0.375,0.206-0.618c-0.073-0.322-0.362,0.18-0.412-0.206c0.148-0.529,0.632-0.288,0.206-1.029
		c0.661-0.419,0.575-0.653,1.235-0.206c0.54,6.855-4.764,9.642-9.262,12.143c-0.089-0.65-0.509-0.809-0.206-1.853
		c-0.493-0.082,0.115,0.938-0.617,0.618c0.159-0.184,0.221-0.465,0.206-0.824c-0.638,0.864-0.699,1.165-0.823,2.265
		c-0.769-0.082-1.208,0.164-1.235,0.823c0.234-0.796,1.555-0.504,2.058-1.029c-0.115-0.297-0.321-0.503-0.617-0.617
		c-0.039-0.176,0.081-0.194,0.206-0.206c0.175,0.037,0.194-0.081,0.206-0.206c0.608,0.298,0.178,0.459,0.411,1.234v0.206
		c-1.247,0.4-2.247,1.046-3.705,1.234c0.166-0.436,0.848-0.802,1.235-0.41c0.009-0.284-0.097-0.453-0.206-0.617
		c-0.596,0.433-1.373,0.685-2.264,0.822c0.501-0.815-0.548,0.104-0.824-0.411C402.968,303.252,407.115,300.334,410.148,296.299
		L410.148,296.299z"/>
	<path fill="#D82128" d="M404.178,304.944c-0.234-0.775,0.198-0.938-0.411-1.235c-0.012,0.126-0.031,0.244-0.207,0.207
		c-0.125,0.011-0.244,0.03-0.206,0.205c0.296,0.114,0.502,0.321,0.617,0.617c-0.503,0.526-1.824,0.233-2.058,1.029
		c0.027-0.658,0.467-0.904,1.235-0.822c0.124-1.099,0.184-1.4,0.823-2.265c0.016,0.359-0.046,0.64-0.206,0.823
		c0.731,0.32,0.124-0.699,0.617-0.618c-0.304,1.044,0.115,1.202,0.206,1.853C404.584,304.938,404.338,304.899,404.178,304.944
		L404.178,304.944z"/>
	<path fill="#D82128" d="M398.415,305.767c0.276,0.515,1.326-0.404,0.824,0.411c0.891-0.138,1.667-0.39,2.264-0.823
		c0.109,0.165,0.214,0.334,0.206,0.617c-0.387-0.391-1.069-0.024-1.235,0.411c-1.245,0.54-2.985,0.582-4.733,0.617
		C396.527,306.485,397.466,306.121,398.415,305.767L398.415,305.767z"/>
	<path fill="#D82128" d="M413.852,292.594c-0.661-0.447-0.575-0.212-1.235,0.206c0.426,0.741-0.057,0.5-0.206,1.029
		c0.049,0.386,0.339-0.116,0.412,0.206c-0.032,0.243,0.035,0.584-0.207,0.618c-0.022-0.252-0.061-0.488-0.411-0.413
		c-0.235,0.536,0.174,1.052-0.617,0.413c0.073,1.02,0.043,0.449-0.824,1.029c0.359,0.674,0.118,0.675-0.411,0.823
		c0.562,0.187-0.627,0.461,0,0.824c0.731,0.32,0.124-0.699,0.617-0.617c0.153,1.104-0.937,0.801-1.234,0.617
		c0.438-0.088,0.48-0.692,0.411-1.03c0.305-0.449,0.402-1.107,0.823-1.44c1.06-1.218,2.001-2.998,2.47-3.499
		C413.605,291.744,413.784,292.114,413.852,292.594L413.852,292.594z"/>
	<path fill="#D82128" d="M390.8,301.445c0.791,0.032,1.21,0.436,1.44,1.029c0.03-0.925-0.511-2.179-0.823-1.029
		c-0.116-1.239,0.717-1.334,1.235-1.441v-0.205c0.454,0.162,0.514,0.72,0.823,1.029c-0.24,0.033-0.366-0.046-0.411-0.207
		c0.05,0.417-0.687,0.846-0.618,1.852c-0.304,0.108-0.519,0.306-0.823,0.412C391.62,302.135,391.038,301.961,390.8,301.445z"/>
	<path fill="#FFFFFC" d="M378.451,303.092c-0.904-0.936,0.174-2.076,1.235-2.264c-0.796,0.637-0.043,0.464,0.411,0.617
		C379.635,302.081,379.086,302.629,378.451,303.092z"/>
	<path fill="#D82128" d="M378.451,303.299c1.457-0.424,0.248,1.141,0.206,1.646c-0.31-0.58-0.867,0.521-1.029,0
		c0.207-0.003,0.258-0.361,0-0.412c0.122,0.367-0.604,0.855,0,1.029c0.115-0.596,0.32,0.316,0.617,0.206
		c0.478-0.302-0.401-0.652,0.412-0.616c-0.028,0.382-0.135,0.688-0.412,0.823c-0.62-0.423-0.701-0.109-1.235-0.617
		c0.291-0.739,0.961-1.099,1.235-1.853C378.207,303.329,378.325,303.309,378.451,303.299L378.451,303.299z"/>
	<path fill="#D42128" d="M461.186,303.916c0.227-0.462,0.342-1.032,0.617-1.441c0.531,0.282,0.047,1.261,0,1.646
		c-0.393,0.545-0.213,1.891,0,2.471C460.876,306.421,461.262,304.936,461.186,303.916z"/>
	<path fill="#D42128" d="M393.887,304.944h-0.206c-0.284,0.02-0.802,0.803-0.411,0.823c-0.459,0.506-0.951,0.328-1.441,0
		c-0.323,0.088-0.176,0.646-0.823,0.411c0.206,0.274,0.34,0.621,0.617,0.823c-0.149,0.418-0.619,0.84-1.029,0.412
		c0.046-0.298,0.614-0.073,0.617-0.412c-0.425-0.209-1.693,0.496-2.264,0.823c0.63,0.001,0.413,0.253,0.823,1.029
		c0.325-0.539,1.02-0.708,0.617-1.439c0.275-0.031,0.622,0.836,0.824,0.205c0.567,0.319-0.649,0.566-0.824,0.823
		c2.206,0.001,0.072-3.16,2.882-2.264c-1.895,2.976-5.415,4.328-9.262,5.352c2.705-2.714,7.247-3.592,7.615-8.646
		c0.305-0.106,0.519-0.304,0.823-0.41c-0.069-1.007,0.668-1.436,0.618-1.853c0.045,0.16,0.172,0.239,0.411,0.206
		C394.322,301.542,394.634,303.851,393.887,304.944L393.887,304.944z"/>
	<path fill="#D82128" d="M393.27,306.179c-2.81-0.896-0.676,2.265-2.882,2.264c0.174-0.257,1.391-0.504,0.824-0.823
		c-0.202,0.631-0.549-0.236-0.824-0.205c0.402,0.731-0.292,0.9-0.617,1.439c-0.41-0.775-0.192-1.028-0.823-1.029
		c0.572-0.327,1.84-1.031,2.264-0.823c-0.003,0.34-0.571,0.114-0.617,0.412c0.41,0.428,0.879,0.006,1.029-0.412
		c-0.278-0.202-0.411-0.549-0.617-0.823c0.647,0.235,0.5-0.323,0.823-0.411c0.49,0.328,0.982,0.506,1.441,0
		c-0.392-0.02,0.127-0.804,0.411-0.823h0.206C393.796,305.469,393.599,305.89,393.27,306.179z"/>
	<path fill="#D42128" d="M463.246,304.326c0.368,0.026,0.434-0.251,0.822-0.206c-0.038,0.167-0.205,0.205-0.205,0.411
		c-0.498,0.257-0.668,0.844-0.823,1.441c0.848-0.112,1.243-0.677,1.646-1.235c0.066-0.482,0.326-0.771,0.206-1.439
		c-0.373-0.491-1.61-0.116-2.057,0c0.908-1.544,3.745-0.099,2.674,1.646c-0.637,0.665-1.043,1.562-2.469,1.44
		c-0.115-0.297-0.321-0.502-0.617-0.617C462.426,305.015,463.008,304.844,463.246,304.326L463.246,304.326z"/>
	<path fill="#D82128" d="M372.482,305.973c-0.012,0.264-0.264,0.284-0.207,0.617c0.741,0.283,0.5,0.938,1.029,1.029
		c0.654-0.386,0.157-0.438-0.206-0.823c0.539-0.058,0.885,0.075,0.823,0.618c-0.384,0.542-1.586,0.353-2.47,0.205
		c0.028-0.384,0.135-0.688,0.411-0.823c0.016,0.358-0.045,0.64-0.206,0.823c0.477,0.11,1.419-0.333,0.823-0.618
		c-0.513,0.616-0.385-0.984-0.823-0.617c0.061-0.717,0.557,0.018,0.618-0.41C372.345,305.973,372.414,305.973,372.482,305.973
		L372.482,305.973z"/>
	<path fill="#D42128" d="M445.55,308.648v-0.411c-0.685-0.211-2.603,1.647-3.705,0.411c0.24-2.093,0.972-3.691,2.675-4.322
		c-0.692,1.365-1.881,2.236-2.058,4.116c1.292-0.148,2.038-0.843,3.088-1.234c-0.012-1.382,0.26-2.484,0.411-3.705
		c0.989,0.553-0.106,1.915,0.206,3.088c0.868-0.228,1.307-0.889,2.264-1.029c-0.506,1.415-2.707,1.135-2.47,3.292
		C445.754,308.855,445.716,308.688,445.55,308.648L445.55,308.648z"/>
	<path fill="#D42128" d="M456.453,303.299c-1.263,0.998-2.243,2.284-2.469,4.321c1.59-0.056,2.174-1.117,2.469-2.47
		c0.748,0.187,0.126,0.606,0.207,1.234c0.757-0.067,1.138-0.508,1.853-0.617c-0.852,1.275-2.854,1.401-2.471,3.911
		c-0.477-0.211-0.426-0.946-0.412-1.647c-0.674,0.012-0.785,0.585-1.646,0.411c-1.248-1.89,0.418-3.992,1.234-5.145
		c0.367-0.064,0.806-1.09,1.233-0.412C456.453,303.022,456.453,303.161,456.453,303.299L456.453,303.299z"/>
	<path fill="#F7E173" d="M456.453,303.299c1.867-0.084,2.896,0.672,4.733,0.617c0.077,1.021-0.31,2.505,0.617,2.675
		c-0.213-0.579-0.393-1.925,0-2.471c0.266,0.284,0.896,0.204,1.442,0.206c-0.238,0.517-0.82,0.689-0.823,1.441
		c0.296,0.115,0.502,0.32,0.617,0.617c1.426,0.122,1.832-0.775,2.469-1.44c4.247,0.831,8.504,1.649,13.381,1.852
		c-4.35,1.825-7.79,4.562-13.381,5.146c2.535-1.979-0.287-5.084-3.086-3.293c0.644,0.326,2.847-0.43,3.497,0.411
		c-0.275,1.577-0.765,2.939-2.674,2.882h-0.411c0.703-0.736,1.584-1.297,1.851-2.47c-1.363,0.419-1.67,1.897-2.882,2.47
		c-1.472,0.031-2.914,0.033-3.909-0.41c0.424-0.646-0.144-0.27-0.619-0.207c-0.005-0.485,0.354-0.605,0.207-1.235
		c-0.051-0.223-0.409-0.14-0.412-0.41c-1.044-0.084-1.473,0.448-1.851,1.028c0.807,0.053,0.765-0.743,1.646-0.617
		c-0.067,0.479-0.211,0.888-0.617,1.029h-1.439c0.018-0.769,0.229-0.586,0-1.234c-0.408,0.143-0.55,0.549-0.617,1.029
		c-0.974,0.082-1.719-0.065-2.472-0.206c0.339-0.896,0.701-1.77,1.234-2.47c-0.818,0.01-1.634,1.793-2.469,2.47h-1.648
		c0.55-0.792-0.526,0.037-1.028,0c-0.285-0.469-1.433-0.077-2.058-0.206c0.243-0.51,0.219-1.291,1.234-1.028
		c0.035-0.585-1.347,0.248-1.029-0.618c-0.238-2.158,1.964-1.878,2.47-3.293c-0.956,0.141-1.395,0.803-2.263,1.029
		c-0.312-1.172,0.782-2.534-0.207-3.087c-0.151,1.22-0.422,2.323-0.41,3.705c-1.051,0.392-1.797,1.086-3.089,1.234
		c0.178-1.881,1.365-2.752,2.058-4.116c-1.703,0.631-2.436,2.229-2.675,4.321c1.103,1.236,3.021-0.621,3.706-0.41v0.41
		c0.053,1.291-1.344,1.129-1.648,2.059c-3.925-0.287-7.661,0.707-10.907,0.411c0.861-1.607,1.14-3.798,1.851-5.557
		c5.347-2.041,13.211-3.368,20.377-2.264c-0.817,1.152-2.482,3.255-1.234,5.146c0.86,0.173,0.973-0.4,1.646-0.411
		c-0.014,0.7-0.064,1.437,0.411,1.646c-0.382-2.509,1.62-2.635,2.471-3.911c-0.714,0.11-1.097,0.551-1.853,0.617
		c-0.081-0.627,0.541-1.048-0.207-1.233c-0.294,1.352-0.878,2.413-2.469,2.47C454.211,305.583,455.191,304.297,456.453,303.299
		L456.453,303.299z M460.159,310.913c0.267-1.791,1.841-2.276,2.47-3.705C461.22,306.927,459.54,309.174,460.159,310.913
		L460.159,310.913z M463.246,309.266c-1.302,0.413-1.767,1.663-2.676,2.47C461.781,311.23,462.672,310.407,463.246,309.266z"/>
	<path fill="#D42128" d="M462.632,307.208c-0.629,1.429-2.203,1.914-2.47,3.705C459.543,309.174,461.223,306.927,462.632,307.208z"
		/>
	<path fill="#D82128" d="M443.899,310.707c0.306-0.931,1.701-0.769,1.648-2.058c0.166,0.04,0.204,0.207,0.411,0.206
		c-0.317,0.867,1.064,0.033,1.029,0.618c-1.017-0.263-0.993,0.518-1.234,1.028c-0.114,0.3,0.239,1.065-0.206,1.03v-1.44
		c-0.863-0.04-0.638,1.009-1.648,0.822V310.707L443.899,310.707z"/>
	<path fill="#D42128" d="M460.573,311.736c0.909-0.806,1.374-2.057,2.677-2.47C462.675,310.407,461.782,311.23,460.573,311.736z"/>
	<path fill="#D42128" d="M456.249,311.119c0.408-0.143,0.55-0.55,0.617-1.03c-0.881-0.126-0.838,0.671-1.646,0.617
		c0.378-0.579,0.807-1.112,1.851-1.028c0.003,0.271,0.36,0.188,0.411,0.411c0.148,0.629-0.211,0.75-0.205,1.234
		c0.475-0.062,1.041-0.439,0.617,0.207c-0.635,0.332-1.306,1.469-2.265,0.823C455.634,311.739,456.166,311.653,456.249,311.119
		L456.249,311.119z"/>
	<path fill="#D42128" d="M461.807,311.942c1.212-0.572,1.519-2.051,2.882-2.47c-0.267,1.172-1.148,1.732-1.851,2.47
		c-0.776,0.526-1.392,1.217-2.471,1.44C460.741,312.798,461.537,312.633,461.807,311.942z"/>
	<path fill="#D42128" d="M450.488,310.707c0.834-0.676,1.65-2.46,2.469-2.47c-0.534,0.7-0.896,1.573-1.234,2.47
		c0.007,1.172-0.521,1.812-0.411,3.089C450.462,313.339,450.423,312.074,450.488,310.707z"/>
	<path fill="#D42128" d="M463.246,311.942c1.91,0.058,2.4-1.305,2.674-2.882c-0.65-0.842-2.854-0.085-3.497-0.411
		c2.799-1.791,5.621,1.315,3.086,3.293C465.139,312.287,463.501,312.751,463.246,311.942z"/>
	<path fill="#D42128" d="M454.19,310.913c0.067-0.479,0.211-0.888,0.617-1.029c0.23,0.647,0.019,0.466,0,1.234v2.265
		C453.788,313.434,453.823,311.591,454.19,310.913z"/>
	<path fill="#D42128" d="M448.844,310.707c-2.419,1.01-3.854,3.006-6.585,3.706c0.245-1.744,2.237-1.743,3.293-2.676
		c0.858-0.238,1.535-0.66,2.263-1.03C448.318,310.743,449.393,309.916,448.844,310.707z"/>
	<path fill="#D65766" d="M426.613,300.21c-1.254-3.279,0.394-6.571,1.233-9.056c0.176-0.038,0.195,0.081,0.207,0.206
		C428.835,294.781,427.653,297.931,426.613,300.21z"/>
	<path fill="#F7E173" d="M463.866,304.533c0.431-0.087,0.546,0.141,0.823,0.205c-0.402,0.559-0.798,1.123-1.646,1.235
		C463.2,305.376,463.369,304.789,463.866,304.533z"/>
	<path fill="#FBF4DA" d="M447.814,310.707c-0.728,0.37-1.404,0.792-2.263,1.03v-0.206c0.444,0.035,0.092-0.73,0.206-1.03
		C446.382,310.631,447.529,310.238,447.814,310.707z"/>
	<path fill="#F7E173" d="M431.141,311.531c-8.907,0.262-15.38,6.101-24.081,4.527c5.41-2.732,12.251-5.209,18.936-7.616
		c1.943-0.7,5.572-2.28,6.587-1.852C432.21,308.344,431.747,310.01,431.141,311.531L431.141,311.531z"/>
	<path fill="#D65766" d="M431.346,283.333c0.173,2.09-1.148,3.562-2.88,3.088C428.829,284.797,429.312,283.288,431.346,283.333z"/>
</g>
</svg>
